<svg width="166" height="19" viewBox="0 0 166 19" fill="none" xmlns="http://www.w3.org/2000/svg">
<path d="M14.4922 16.8516C14.3047 16.9844 13.9688 17.168 13.4844 17.4023C13.0078 17.6289 12.3477 17.832 11.5039 18.0117C10.6602 18.1914 9.60156 18.2812 8.32812 18.2812C6.61719 18.2812 5.14062 18 3.89844 17.4375C2.66406 16.8672 1.71484 15.9492 1.05078 14.6836C0.386719 13.4102 0.0546875 11.7266 0.0546875 9.63281C0.0546875 6.84375 0.769531 4.69531 2.19922 3.1875C3.62891 1.67188 5.62109 0.914062 8.17578 0.914062C9.39453 0.914062 10.3672 1.03125 11.0938 1.26562C11.8203 1.5 12.3711 1.77344 12.7461 2.08594C13.1211 2.39844 13.3828 2.67188 13.5312 2.90625C13.5859 2.99219 13.625 3.07031 13.6484 3.14062C13.6719 3.20312 13.6875 3.30469 13.6953 3.44531C13.7188 3.63281 13.7227 3.90625 13.707 4.26562C13.6992 4.625 13.6719 4.94141 13.625 5.21484C13.5938 5.38672 13.543 5.5 13.4727 5.55469C13.4414 5.58594 13.3867 5.61328 13.3086 5.63672C13.2305 5.66016 13.1133 5.67188 12.957 5.67188C12.707 5.67188 12.4141 5.66406 12.0781 5.64844C11.75 5.625 11.5078 5.60156 11.3516 5.57812C11.1641 5.54688 11.0273 5.50391 10.9414 5.44922C10.8633 5.38672 10.7773 5.29297 10.6836 5.16797C10.5898 5.04297 10.4609 4.89844 10.2969 4.73438C10.1328 4.5625 9.88281 4.41016 9.54688 4.27734C9.21875 4.14453 8.76172 4.07812 8.17578 4.07812C6.88672 4.07812 5.875 4.54688 5.14062 5.48438C4.40625 6.41406 4.03906 7.75391 4.03906 9.50391C4.03906 11.3398 4.41797 12.7344 5.17578 13.6875C5.94141 14.6406 7.03906 15.1172 8.46875 15.1172C9.1875 15.1172 9.71484 15.0664 10.0508 14.9648C10.3945 14.8555 10.6133 14.7734 10.707 14.7188V11.0742C10.707 10.8477 10.7461 10.6758 10.8242 10.5586C11.1758 10.043 11.668 9.5 12.3008 8.92969C12.418 8.83594 12.5195 8.78906 12.6055 8.78906C12.6992 8.78906 12.7969 8.83594 12.8984 8.92969C13.2422 9.22656 13.5312 9.51172 13.7656 9.78516C14 10.0508 14.2031 10.3086 14.375 10.5586C14.4531 10.6836 14.4922 10.8555 14.4922 11.0742V16.8516ZM24.4531 18.2812C22.9844 18.2812 21.7305 18.0898 20.6914 17.707C19.6602 17.3242 18.8711 16.6523 18.3242 15.6914C17.7852 14.7305 17.5156 13.3828 17.5156 11.6484V3.07031C17.5156 2.84375 17.5547 2.67188 17.6328 2.55469C17.9844 2.03906 18.4766 1.49609 19.1094 0.925781C19.2266 0.832031 19.3281 0.785156 19.4141 0.785156C19.5078 0.785156 19.6055 0.832031 19.707 0.925781C20.0508 1.22266 20.3398 1.50781 20.5742 1.78125C20.8086 2.04688 21.0117 2.30469 21.1836 2.55469C21.2617 2.67969 21.3008 2.85156 21.3008 3.07031V11.0625C21.3008 12.1797 21.418 13.0312 21.6523 13.6172C21.8945 14.1953 22.25 14.5898 22.7188 14.8008C23.1875 15.0117 23.7656 15.1172 24.4531 15.1172C25.1562 15.1172 25.7422 15.0117 26.2109 14.8008C26.6797 14.5898 27.0312 14.1953 27.2656 13.6172C27.5 13.0312 27.6172 12.1797 27.6172 11.0625V3.07031C27.6172 2.84375 27.6562 2.67188 27.7344 2.55469C28.0859 2.03906 28.5781 1.49609 29.2109 0.925781C29.3281 0.832031 29.4297 0.785156 29.5156 0.785156C29.6094 0.785156 29.707 0.832031 29.8086 0.925781C30.1523 1.22266 30.4414 1.50781 30.6758 1.78125C30.9102 2.04688 31.1133 2.30469 31.2852 2.55469C31.3633 2.67969 31.4023 2.85156 31.4023 3.07031V11.6484C31.4023 13.3828 31.1055 14.7305 30.5117 15.6914C29.918 16.6523 29.0977 17.3242 28.0508 17.707C27.0117 18.0898 25.8125 18.2812 24.4531 18.2812ZM44.0703 2.12109C44.5 2.72266 44.9375 3.5 45.3828 4.45312C45.8359 5.39844 46.2734 6.4375 46.6953 7.57031C47.1172 8.70312 47.4961 9.86328 47.832 11.0508C48.1758 12.2305 48.457 13.3672 48.6758 14.4609C48.8945 15.5547 49.0195 16.5273 49.0508 17.3789C49.0586 17.793 48.8711 18 48.4883 18H45.6523C45.2852 18 45.0938 17.8164 45.0781 17.4492C45.0469 16.5742 44.9062 15.5117 44.6562 14.2617H38.2578C38.0391 15.4805 37.9141 16.543 37.8828 17.4492C37.8672 17.8164 37.668 18 37.2852 18H34.5078C34.3672 18 34.25 17.9609 34.1562 17.8828C34.0625 17.7969 34.0195 17.6523 34.0273 17.4492C34.0664 16.582 34.1914 15.5977 34.4023 14.4961C34.6211 13.3867 34.9023 12.2383 35.2461 11.0508C35.5898 9.86328 35.9727 8.70312 36.3945 7.57031C36.8164 6.42969 37.2539 5.38672 37.707 4.44141C38.1602 3.49609 38.6016 2.72266 39.0312 2.12109C39.2578 1.80078 39.4961 1.56641 39.7461 1.41797C40.0039 1.26953 40.3203 1.19531 40.6953 1.19531H42.3828C42.7656 1.19531 43.0859 1.26953 43.3438 1.41797C43.6016 1.56641 43.8438 1.80078 44.0703 2.12109ZM41.4219 4.89844C40.9062 5.71875 40.4336 6.69922 40.0039 7.83984C39.5742 8.98047 39.2031 10.1523 38.8906 11.3555H43.9766C43.6484 10.1523 43.2695 8.98047 42.8398 7.83984C42.4102 6.69922 41.9609 5.71875 41.4922 4.89844H41.4219ZM55.5898 17.3789C55.5898 17.6133 55.5391 17.7773 55.4375 17.8711C55.3438 17.957 55.1797 18 54.9453 18H52.4492C52.2148 18 52.0469 17.957 51.9453 17.8711C51.8516 17.7773 51.8047 17.6133 51.8047 17.3789V4.33594C51.8047 3.55469 51.875 2.9375 52.0156 2.48438C52.1641 2.02344 52.4453 1.69531 52.8594 1.5C53.2812 1.29688 53.8945 1.19531 54.6992 1.19531H57.8047C61.8828 1.19531 63.9219 2.76172 63.9219 5.89453C63.9219 6.84766 63.7617 7.62891 63.4414 8.23828C63.1211 8.84766 62.7227 9.32422 62.2461 9.66797C61.7695 10.0039 61.3008 10.2578 60.8398 10.4297V10.4883C61.3633 10.832 61.8594 11.2852 62.3281 11.8477C62.8047 12.4023 63.2344 13.0078 63.6172 13.6641C64 14.3125 64.3242 14.957 64.5898 15.5977C64.8555 16.2305 65.0391 16.7969 65.1406 17.2969C65.1875 17.5312 65.1875 17.707 65.1406 17.8242C65.1016 17.9414 64.9688 18 64.7422 18H62.0352C61.832 18 61.6523 17.957 61.4961 17.8711C61.3477 17.7852 61.2109 17.5859 61.0859 17.2734C60.4922 15.7812 59.8086 14.5664 59.0352 13.6289C58.2617 12.6836 57.5156 11.9258 56.7969 11.3555C56.3359 10.9883 56.1055 10.7266 56.1055 10.5703C56.1055 10.4453 56.1797 10.2734 56.3281 10.0547C56.4219 9.92188 56.5586 9.76172 56.7383 9.57422C56.918 9.38672 57.0742 9.24609 57.207 9.15234C57.3398 9.05859 57.4453 9 57.5234 8.97656C57.6094 8.95312 57.7383 8.94141 57.9102 8.94141C58.4883 8.94141 58.9688 8.74219 59.3516 8.34375C59.7422 7.94531 59.9375 7.31641 59.9375 6.45703C59.9375 5.64453 59.7305 5.05078 59.3164 4.67578C58.9102 4.29297 58.3477 4.10156 57.6289 4.10156H56.9258C56.4102 4.10156 56.0586 4.21094 55.8711 4.42969C55.6836 4.64844 55.5898 5.02344 55.5898 5.55469V17.3789ZM70.3555 18C69.5508 18 68.9375 17.8984 68.5156 17.6953C68.1016 17.4922 67.8203 17.1602 67.6719 16.6992C67.5312 16.2383 67.4609 15.625 67.4609 14.8594V4.33594C67.4609 3.55469 67.5312 2.9375 67.6719 2.48438C67.8203 2.02344 68.1016 1.69531 68.5156 1.5C68.9375 1.29688 69.5508 1.19531 70.3555 1.19531H73.9531C75.6328 1.19531 77.1016 1.44531 78.3594 1.94531C79.625 2.44531 80.6094 3.29297 81.3125 4.48828C82.0156 5.67578 82.3672 7.30859 82.3672 9.38672C82.3672 11.4648 82.0156 13.1367 81.3125 14.4023C80.6094 15.6602 79.625 16.5742 78.3594 17.1445C77.1016 17.7148 75.6328 18 73.9531 18H70.3555ZM72.582 4.27734C72.0664 4.27734 71.7148 4.38672 71.5273 4.60547C71.3398 4.82422 71.2461 5.19922 71.2461 5.73047V13.4648C71.2461 13.9883 71.3398 14.3633 71.5273 14.5898C71.7148 14.8164 72.0664 14.9297 72.582 14.9297H73.1211C74.793 14.9297 76.0859 14.5195 77 13.6992C77.9219 12.8789 78.3828 11.457 78.3828 9.43359C78.3828 8.08203 78.1719 7.03516 77.75 6.29297C77.3359 5.54297 76.7344 5.01953 75.9453 4.72266C75.1562 4.42578 74.207 4.27734 73.0977 4.27734H72.582ZM94.2266 2.12109C94.6562 2.72266 95.0938 3.5 95.5391 4.45312C95.9922 5.39844 96.4297 6.4375 96.8516 7.57031C97.2734 8.70312 97.6523 9.86328 97.9883 11.0508C98.332 12.2305 98.6133 13.3672 98.832 14.4609C99.0508 15.5547 99.1758 16.5273 99.207 17.3789C99.2148 17.793 99.0273 18 98.6445 18H95.8086C95.4414 18 95.25 17.8164 95.2344 17.4492C95.2031 16.5742 95.0625 15.5117 94.8125 14.2617H88.4141C88.1953 15.4805 88.0703 16.543 88.0391 17.4492C88.0234 17.8164 87.8242 18 87.4414 18H84.6641C84.5234 18 84.4062 17.9609 84.3125 17.8828C84.2188 17.7969 84.1758 17.6523 84.1836 17.4492C84.2227 16.582 84.3477 15.5977 84.5586 14.4961C84.7773 13.3867 85.0586 12.2383 85.4023 11.0508C85.7461 9.86328 86.1289 8.70312 86.5508 7.57031C86.9727 6.42969 87.4102 5.38672 87.8633 4.44141C88.3164 3.49609 88.7578 2.72266 89.1875 2.12109C89.4141 1.80078 89.6523 1.56641 89.9023 1.41797C90.1602 1.26953 90.4766 1.19531 90.8516 1.19531H92.5391C92.9219 1.19531 93.2422 1.26953 93.5 1.41797C93.7578 1.56641 94 1.80078 94.2266 2.12109ZM91.5781 4.89844C91.0625 5.71875 90.5898 6.69922 90.1602 7.83984C89.7305 8.98047 89.3594 10.1523 89.0469 11.3555H94.1328C93.8047 10.1523 93.4258 8.98047 92.9961 7.83984C92.5664 6.69922 92.1172 5.71875 91.6484 4.89844H91.5781Z" fill="#4E0077"/>
<path d="M111.477 11.2734C111.586 10.8516 111.703 10.4375 111.828 10.0312C111.961 9.61719 112.121 9.15625 112.309 8.64844C112.473 8.19531 112.672 7.67578 112.906 7.08984C113.141 6.49609 113.387 5.89453 113.645 5.28516C113.91 4.67578 114.168 4.10938 114.418 3.58594C114.668 3.0625 114.895 2.64453 115.098 2.33203C115.348 1.94922 115.617 1.66406 115.906 1.47656C116.203 1.28906 116.637 1.19531 117.207 1.19531H118.742C119.148 1.19531 119.488 1.25781 119.762 1.38281C120.043 1.5 120.242 1.78516 120.359 2.23828C120.445 2.57422 120.527 3.06641 120.605 3.71484C120.684 4.36328 120.75 5.26172 120.805 6.41016C120.859 7.55859 120.902 9.03516 120.934 10.8398C120.965 12.6367 120.98 14.8594 120.98 17.5078C120.98 17.6484 120.934 17.7656 120.84 17.8594C120.746 17.9531 120.633 18 120.5 18H117.828C117.695 18 117.582 17.9531 117.488 17.8594C117.395 17.7656 117.348 17.6445 117.348 17.4961C117.348 15.4336 117.348 13.6836 117.348 12.2461C117.348 10.8086 117.344 9.61719 117.336 8.67188C117.328 7.72656 117.316 6.97656 117.301 6.42188C117.293 5.85938 117.277 5.42578 117.254 5.12109H117.184C116.77 6.07422 116.328 7.13672 115.859 8.30859C115.391 9.47266 114.934 10.6758 114.488 11.918C114.043 13.1523 113.645 14.3594 113.293 15.5391C113.191 15.8906 113.062 16.1367 112.906 16.2773C112.758 16.4102 112.414 16.4766 111.875 16.4766H110.527C110.066 16.4766 109.758 16.418 109.602 16.3008C109.453 16.1836 109.324 15.9297 109.215 15.5391C108.957 14.6484 108.672 13.707 108.359 12.7148C108.047 11.7227 107.723 10.75 107.387 9.79688C107.059 8.83594 106.738 7.95312 106.426 7.14844C106.121 6.33594 105.848 5.66016 105.605 5.12109H105.535C105.473 6.04297 105.418 7.16406 105.371 8.48438C105.324 9.80469 105.285 11.2383 105.254 12.7852C105.23 14.332 105.215 15.9102 105.207 17.5195C105.207 17.6602 105.16 17.7773 105.066 17.8711C104.973 17.957 104.859 18 104.727 18H102.324C102.191 18 102.078 17.9531 101.984 17.8594C101.891 17.7656 101.844 17.6445 101.844 17.4961C101.852 13.332 101.934 10.0078 102.09 7.52344C102.254 5.03906 102.43 3.375 102.617 2.53125C102.742 1.97656 102.961 1.61719 103.273 1.45312C103.594 1.28125 103.957 1.19531 104.363 1.19531H106.262C106.691 1.19531 107.004 1.27344 107.199 1.42969C107.402 1.57812 107.648 1.87109 107.938 2.30859C108.109 2.56641 108.312 2.95312 108.547 3.46875C108.789 3.98438 109.039 4.55859 109.297 5.19141C109.555 5.81641 109.797 6.4375 110.023 7.05469C110.258 7.66406 110.449 8.19531 110.598 8.64844C110.754 9.10938 110.898 9.55859 111.031 9.99609C111.164 10.4258 111.281 10.8516 111.383 11.2734H111.477ZM127.52 18C126.715 18 126.102 17.8984 125.68 17.6953C125.266 17.4922 124.984 17.1602 124.836 16.6992C124.695 16.2383 124.625 15.625 124.625 14.8594V4.33594C124.625 3.55469 124.695 2.9375 124.836 2.48438C124.984 2.02344 125.266 1.69531 125.68 1.5C126.102 1.29688 126.715 1.19531 127.52 1.19531H133.027C133.215 1.19531 133.355 1.22656 133.449 1.28906C133.652 1.42969 133.863 1.59766 134.082 1.79297C134.301 1.98828 134.531 2.22266 134.773 2.49609C134.852 2.59766 134.891 2.67969 134.891 2.74219C134.891 2.8125 134.852 2.89062 134.773 2.97656C134.531 3.25 134.301 3.48438 134.082 3.67969C133.863 3.875 133.652 4.04297 133.449 4.18359C133.34 4.24609 133.199 4.27734 133.027 4.27734H129.746C129.23 4.27734 128.879 4.38672 128.691 4.60547C128.504 4.82422 128.41 5.19922 128.41 5.73047V8.00391H132.617C132.805 8.00391 132.945 8.03516 133.039 8.09766C133.242 8.23828 133.453 8.40625 133.672 8.60156C133.891 8.79688 134.121 9.03125 134.363 9.30469C134.441 9.40625 134.48 9.48828 134.48 9.55078C134.48 9.62109 134.441 9.69922 134.363 9.78516C134.121 10.0586 133.891 10.293 133.672 10.4883C133.453 10.6836 133.242 10.8516 133.039 10.9922C132.93 11.0547 132.789 11.0859 132.617 11.0859H128.41V13.4531C128.41 13.9766 128.504 14.3516 128.691 14.5781C128.879 14.8047 129.23 14.918 129.746 14.918H133.414C133.602 14.918 133.742 14.9492 133.836 15.0117C134.039 15.1523 134.25 15.3203 134.469 15.5156C134.688 15.7109 134.918 15.9453 135.16 16.2188C135.238 16.3203 135.277 16.4023 135.277 16.4648C135.277 16.5352 135.238 16.6133 135.16 16.6992C134.918 16.9727 134.688 17.207 134.469 17.4023C134.25 17.5977 134.039 17.7656 133.836 17.9062C133.727 17.9688 133.586 18 133.414 18H127.52ZM140.645 18C139.84 18 139.227 17.8984 138.805 17.6953C138.391 17.4922 138.109 17.1602 137.961 16.6992C137.82 16.2383 137.75 15.625 137.75 14.8594V3.07031C137.75 2.84375 137.789 2.67188 137.867 2.55469C138.219 2.03906 138.711 1.49609 139.344 0.925781C139.461 0.832031 139.562 0.785156 139.648 0.785156C139.742 0.785156 139.84 0.832031 139.941 0.925781C140.285 1.22266 140.574 1.50781 140.809 1.78125C141.043 2.04688 141.246 2.30469 141.418 2.55469C141.496 2.67969 141.535 2.85156 141.535 3.07031V13.4648C141.535 13.9883 141.629 14.3633 141.816 14.5898C142.004 14.8164 142.355 14.9297 142.871 14.9297L146.469 14.918C146.656 14.918 146.797 14.9492 146.891 15.0117C147.094 15.1523 147.305 15.3203 147.523 15.5156C147.742 15.7109 147.973 15.9453 148.215 16.2188C148.293 16.3203 148.332 16.4023 148.332 16.4648C148.332 16.5352 148.293 16.6133 148.215 16.6992C147.973 16.9727 147.742 17.207 147.523 17.4023C147.305 17.5977 147.094 17.7656 146.891 17.9062C146.781 17.9688 146.641 18 146.469 18H140.645ZM156.84 18.293C155.215 18.293 153.801 17.9805 152.598 17.3555C151.395 16.7305 150.461 15.7891 149.797 14.5312C149.141 13.2734 148.812 11.7031 148.812 9.82031C148.812 6.82812 149.543 4.59766 151.004 3.12891C152.465 1.65234 154.5 0.914062 157.109 0.914062C159.555 0.914062 161.488 1.63672 162.91 3.08203C164.332 4.51953 165.043 6.65234 165.043 9.48047C165.043 11.4805 164.711 13.1328 164.047 14.4375C163.383 15.7344 162.438 16.7031 161.211 17.3438C159.984 17.9766 158.527 18.293 156.84 18.293ZM156.91 15.1289C158.316 15.1289 159.359 14.625 160.039 13.6172C160.719 12.6094 161.059 11.3008 161.059 9.69141C161.059 7.82422 160.738 6.42188 160.098 5.48438C159.457 4.54688 158.426 4.07812 157.004 4.07812C154.199 4.07812 152.797 5.92578 152.797 9.62109C152.797 11.2695 153.133 12.6016 153.805 13.6172C154.484 14.625 155.52 15.1289 156.91 15.1289Z" fill="#D55500"/>
</svg>
